<svg width="97" height="96" viewBox="0 0 97 96" fill="none" xmlns="http://www.w3.org/2000/svg">
<rect x="0.75" width="96" height="96" rx="16" fill="#FFF5EC"/>
<path d="M57.8444 41.2486C56.5385 39.0105 54.4527 37.3328 51.9866 36.537C53.0788 35.8373 53.9148 34.8024 54.3694 33.5876C54.824 32.3728 54.8726 31.0434 54.5081 29.7985C54.1435 28.5537 53.3854 27.4606 52.3473 26.6829C51.3092 25.9052 50.047 25.4849 48.7499 25.4849C47.4528 25.4849 46.1907 25.9052 45.1526 26.6829C44.1145 27.4606 43.3563 28.5537 42.9918 29.7985C42.6272 31.0434 42.6759 32.3728 43.1305 33.5876C43.5851 34.8024 44.4211 35.8373 45.5132 36.537C43.0472 37.3328 40.9614 39.0105 39.6554 41.2486C39.5234 41.4767 39.4538 41.7354 39.4536 41.9989C39.4534 42.2624 39.5226 42.5213 39.6542 42.7495C39.7859 42.9778 39.9753 43.1673 40.2035 43.2991C40.4317 43.4308 40.6905 43.5002 40.954 43.5001H56.5459C56.8094 43.5002 57.0682 43.4308 57.2964 43.2991C57.5246 43.1673 57.714 42.9778 57.8456 42.7495C57.9773 42.5213 58.0465 42.2624 58.0463 41.9989C58.0461 41.7354 57.9764 41.4767 57.8444 41.2486Z" fill="#734C23" fill-opacity="0.52"/>
<path d="M70.6 46.7536C70.3033 46.3098 69.9195 45.9308 69.4719 45.6399C69.0243 45.3489 68.5222 45.152 67.9961 45.061C67.47 44.9701 66.931 44.987 66.4116 45.1107C65.8923 45.2345 65.4035 45.4626 64.975 45.781L57.615 51.1924C57.6978 51.6324 57.7417 52.0788 57.7459 52.5265C57.7465 54.5182 56.9571 56.4289 55.5508 57.8393C54.1445 59.2498 52.2362 60.0448 50.2444 60.0501H48.735C48.3372 60.0501 47.9556 59.892 47.6743 59.6107C47.393 59.3294 47.235 58.9479 47.235 58.5501C47.235 58.1522 47.393 57.7707 47.6743 57.4894C47.9556 57.2081 48.3372 57.0501 48.735 57.0501H50.2446C51.4409 57.0457 52.5867 56.5671 53.4306 55.719C54.2745 54.871 54.7476 53.7229 54.7461 52.5265C54.7237 51.3391 54.2434 50.2063 53.4055 49.3646C52.5676 48.5229 51.437 48.0375 50.2497 48.0097H44.5647C42.0988 48.0071 39.6796 48.6817 37.5708 49.9597L35.2539 51.4573C34.3845 50.9319 33.3663 50.7073 32.3565 50.8183C31.3468 50.9292 30.4017 51.3696 29.6671 52.0713L27.5659 54.2013C26.7247 55.0533 26.2521 56.2018 26.25 57.3991C26.248 58.5964 26.7166 59.7466 27.555 60.6015L36.0423 69.1489C36.8929 69.9786 38.034 70.4433 39.2222 70.4438C40.4105 70.4444 41.552 69.9807 42.4033 69.1518L44.5333 67.0068C45.2375 66.2846 45.6769 65.3456 45.7803 64.3423L58.198 63.1996C59.3357 63.1056 60.3925 62.5739 61.146 61.7164L70.311 51.4864C70.33 51.4651 70.3476 51.444 70.3651 51.4227C70.8826 50.7644 71.1831 49.9618 71.2251 49.1255C71.2672 48.2892 71.0488 47.4605 70.6 46.7536Z" fill="#734C23" fill-opacity="0.52"/>
</svg>
