<svg width="97" height="96" viewBox="0 0 97 96" fill="none" xmlns="http://www.w3.org/2000/svg">
<rect x="0.5" width="96" height="96" rx="16" fill="#FFF5EC"/>
<g clip-path="url(#clip0_16_381)">
<path d="M47.0898 59.6873V48.9294L41.5168 43.3568C40.9535 42.7936 40.9535 41.8806 41.5168 41.3177C42.0796 40.7545 42.9926 40.7545 43.5558 41.3177L48.5319 46.2938L53.508 41.3177C54.0708 40.7545 54.9838 40.7545 55.547 41.3177C56.1099 41.8806 56.1099 42.7936 55.547 43.3568L49.9733 48.9302V59.6873H57.9578C58.2574 57.7101 59.2106 55.86 60.6751 54.4724C62.3977 52.8398 63.7531 50.915 64.7038 48.7511C65.6885 46.5099 66.1877 44.1229 66.1877 41.6561C66.1877 36.9774 64.376 32.5686 61.0867 29.2419C57.8 25.9182 53.4172 24.0571 48.7461 24.0011C48.6744 24.0004 48.604 24 48.5326 24C38.9288 24 31.0285 31.7498 30.8772 41.3727C30.8381 43.8798 31.3134 46.3092 32.2912 48.5944C33.2338 50.7982 34.5943 52.7585 36.3345 54.4215C37.8257 55.8461 38.7969 57.7137 39.1031 59.6873H47.0898Z" fill="#734C23" fill-opacity="0.52"/>
<path d="M39.2074 62.5708V65.1903C39.2074 68.9454 42.262 72 46.0167 72H51.0466C54.8014 72 57.8563 68.9454 57.8563 65.1903V62.5708H39.2074Z" fill="#734C23" fill-opacity="0.52"/>
</g>
<defs>
<clipPath id="clip0_16_381">
<rect width="48" height="48" fill="white" transform="translate(24.5 24)"/>
</clipPath>
</defs>
</svg>
