<svg width="97" height="96" viewBox="0 0 97 96" fill="none" xmlns="http://www.w3.org/2000/svg">
<rect x="0.25" width="96" height="96" rx="16" fill="#FFF5EC"/>
<g clip-path="url(#clip0_16_349)">
<path d="M48.7183 45.3483C47.8161 45.6692 46.8438 44.9999 46.8438 44.0217V35.3438H40.1448C38.9311 35.3438 38.2882 36.7829 39.097 37.688C39.5584 38.2029 39.8125 38.869 39.8125 39.5625C39.8125 41.1129 38.5504 42.375 37 42.375C35.4496 42.375 34.1875 41.1129 34.1875 39.5625C34.1875 38.869 34.4416 38.2029 34.903 37.688C35.7118 36.7829 35.0689 35.3438 33.8552 35.3438H28.4688C26.1424 35.3438 24.25 37.2362 24.25 39.5625V56.4375C24.25 58.7638 26.1424 60.6562 28.4688 60.6562H31.375C31.375 63.7585 33.8977 66.2812 37 66.2812C40.1023 66.2812 42.625 63.7585 42.625 60.6562H46.8438V51.9785C46.8438 51.0132 47.848 50.3501 48.7183 50.6519C50.4651 51.274 52.4673 49.8705 52.4688 48.0001C52.4688 46.127 50.4678 44.7247 48.7183 45.3483Z" fill="#734C23" fill-opacity="0.52"/>
<path d="M68.0312 35.3438H65.125C65.125 32.2415 62.6023 29.7188 59.5 29.7188C56.3977 29.7188 53.875 32.2415 53.875 35.3438H49.6562V42.375C52.7585 42.375 55.2812 44.8977 55.2812 48C55.2812 51.1023 52.7585 53.625 49.6562 53.625V60.6562H68.0312C70.3576 60.6562 72.25 58.7638 72.25 56.4375V39.5625C72.25 37.2362 70.3576 35.3438 68.0312 35.3438Z" fill="#734C23" fill-opacity="0.52"/>
</g>
<defs>
<clipPath id="clip0_16_349">
<rect width="48" height="48" fill="white" transform="translate(24.25 24)"/>
</clipPath>
</defs>
</svg>
