<svg width="97" height="96" viewBox="0 0 97 96" fill="none" xmlns="http://www.w3.org/2000/svg">
<rect x="0.75" width="96" height="96" rx="16" fill="#FFF5EC"/>
<path fill-rule="evenodd" clip-rule="evenodd" d="M51.5928 26.7318L54.4508 28.8711C55.2325 29.4562 56.0553 29.7557 57.0302 29.81L60.5946 30.0082C62.729 30.1269 64.4626 31.5815 64.9501 33.6629L65.7644 37.1389C65.987 38.0895 66.4248 38.8477 67.1368 39.5159L69.7399 41.9591C71.2986 43.422 71.6915 45.6505 70.7272 47.5583L69.1167 50.7444C68.6763 51.6158 68.5242 52.4781 68.6401 53.4475L69.0638 56.9924C69.3175 59.115 68.186 61.0746 66.221 61.9162L62.9392 63.3217C62.0417 63.7061 61.371 64.2689 60.8366 65.086L58.8826 68.0738C57.7126 69.8629 55.5861 70.6368 53.5399 70.0184L50.1226 68.9856C49.188 68.7032 48.3124 68.7032 47.3778 68.9856L43.9604 70.0184C41.9142 70.6368 39.7878 69.8629 38.6178 68.0738L36.6637 65.086C36.1293 64.2689 35.4586 63.7061 34.5611 63.3217L31.2791 61.916C29.3141 61.0745 28.1826 59.1148 28.4363 56.9922L28.8601 53.4473C28.9759 52.4779 28.8239 51.6156 28.3834 50.7442L26.7729 47.5581C25.8086 45.6504 26.2015 43.4219 27.7602 41.9589L30.3633 39.5157C31.0753 38.8476 31.513 38.0893 31.7357 37.1387L32.55 33.6627C33.0375 31.5814 34.771 30.1268 36.9054 30.0081L40.4699 29.8098C41.4448 29.7556 42.2675 29.4561 43.0492 28.871L45.9073 26.7316C47.6185 25.4508 49.8814 25.4508 51.5928 26.7318ZM46.9268 49.2242L43.8252 46.1226C43.0213 45.3186 41.7173 45.3186 40.9135 46.1226C40.1096 46.9265 40.1096 48.2303 40.9135 49.0342L45.4755 53.5961C46.2794 54.3999 47.5833 54.4 48.3872 53.5961C51.1368 50.8463 53.8554 48.0657 56.5924 45.3034C57.3905 44.4979 57.388 43.1981 56.5835 42.3981C55.779 41.598 54.4755 41.6002 53.6765 42.4071L46.9268 49.2242ZM48.75 32.6674C44.5161 32.6674 40.683 34.3836 37.9083 37.1582C35.1337 39.9329 33.4175 43.766 33.4175 47.9998C33.4175 52.2336 35.1337 56.0668 37.9083 58.8414C40.683 61.6161 44.5161 63.3322 48.75 63.3322C52.9838 63.3322 56.817 61.6161 59.5916 58.8414C62.3662 56.0668 64.0824 52.2336 64.0824 47.9998C64.0824 43.766 62.3662 39.9328 59.5916 37.1582C56.817 34.3836 52.9838 32.6674 48.75 32.6674ZM58.531 38.2188C56.0279 35.7156 52.5697 34.1674 48.75 34.1674C44.9302 34.1674 41.4721 35.7156 38.9689 38.2188C36.4658 40.7219 34.9175 44.1801 34.9175 47.9998C34.9175 51.8196 36.4658 55.2777 38.9689 57.7808C41.4721 60.284 44.9302 61.8322 48.75 61.8322C52.5697 61.8322 56.0279 60.284 58.531 57.7809C61.0341 55.2778 62.5823 51.8196 62.5823 47.9999C62.5824 44.1801 61.0341 40.7219 58.531 38.2188Z" fill="#734C23" fill-opacity="0.52"/>
</svg>
