<svg width="97" height="96" viewBox="0 0 97 96" fill="none" xmlns="http://www.w3.org/2000/svg">
<rect x="0.25" width="96" height="96" rx="16" fill="#FFF5EC"/>
<g clip-path="url(#clip0_16_370)">
<path d="M71.232 47.652L60.732 44.08C60.42 43.972 60.08 43.972 59.768 44.08L49.268 47.652C48.658 47.858 48.25 48.428 48.25 49.072V57.108C48.25 66.916 59.198 71.684 59.664 71.882C60.04 72.04 60.46 72.04 60.836 71.882C61.302 71.682 72.25 66.916 72.25 57.108V49.072C72.25 48.428 71.842 47.858 71.232 47.652ZM66.822 55.236L61.322 62.236C60.622 63.13 59.31 63.26 58.448 62.52L54.948 59.52C54.108 58.802 54.01 57.538 54.732 56.7C55.45 55.862 56.714 55.766 57.55 56.484L59.466 58.126L63.676 52.768C64.358 51.9 65.614 51.746 66.484 52.432C67.354 53.11 67.506 54.368 66.822 55.236Z" fill="#734C23" fill-opacity="0.52"/>
<path d="M66.822 55.236L61.322 62.236C60.622 63.13 59.31 63.26 58.448 62.52L54.948 59.52C54.108 58.802 54.01 57.538 54.732 56.7C55.45 55.862 56.714 55.766 57.55 56.484L59.466 58.126L63.676 52.768C64.358 51.9 65.614 51.746 66.484 52.432C67.354 53.11 67.506 54.368 66.822 55.236Z" fill="#734C23" fill-opacity="0.52"/>
<path d="M52.11 71.9C51.51 71.96 50.89 72 50.27 72H42.25C37.21 71.96 33.27 68.5 30.25 60C27.23 51.5 24.25 52.52 24.25 50C24.25 49.08 25.25 48 28.25 48C33.01 48 36.25 54 36.25 54V29C36.25 27.34 37.59 26 39.25 26C40.91 26 42.25 27.34 42.25 29V49.5C42.25 49.78 42.47 50 42.75 50C43.03 50 43.25 49.78 43.25 49.5V27C43.25 25.34 44.59 24 46.25 24C47.91 24 49.25 25.34 49.25 27V43.44L47.99 43.86C45.75 44.62 44.25 46.72 44.25 49.08V57.1C44.25 63.66 48.05 68.66 52.11 71.9Z" fill="#734C23" fill-opacity="0.52"/>
<path d="M56.25 29V41.06L50.25 43.1V29C50.25 27.34 51.59 26 53.25 26C54.91 26 56.25 27.34 56.25 29Z" fill="#734C23" fill-opacity="0.52"/>
<path d="M63.25 35V40.72L62.03 40.3C60.89 39.9 59.61 39.9 58.49 40.3L57.25 40.72V35C57.25 33.34 58.59 32 60.25 32C61.91 32 63.25 33.34 63.25 35Z" fill="#734C23" fill-opacity="0.52"/>
</g>
<defs>
<clipPath id="clip0_16_370">
<rect width="48" height="48" fill="white" transform="translate(24.25 24)"/>
</clipPath>
</defs>
</svg>
