<svg width="192" height="32" viewBox="0 0 192 32" fill="none" xmlns="http://www.w3.org/2000/svg">
<path d="M23.4135 27.9999C23.2003 28.0008 22.9899 27.9505 22.8002 27.8533L16.0002 24.2933L9.20017 27.8533C8.97936 27.9694 8.73041 28.0212 8.48161 28.0029C8.23281 27.9845 7.99414 27.8968 7.79274 27.7495C7.59134 27.6023 7.43529 27.4015 7.34232 27.17C7.24936 26.9385 7.2232 26.6856 7.26684 26.4399L8.60017 18.9333L3.10684 13.5999C2.93545 13.4289 2.81387 13.2144 2.75514 12.9795C2.69642 12.7446 2.70277 12.4982 2.77351 12.2666C2.85078 12.0296 2.99294 11.8191 3.18384 11.6588C3.37474 11.4986 3.60674 11.395 3.85351 11.3599L11.4535 10.2533L14.8002 3.41328C14.9094 3.18785 15.0798 2.99774 15.2921 2.86471C15.5043 2.73169 15.7497 2.66113 16.0002 2.66113C16.2506 2.66113 16.4961 2.73169 16.7083 2.86471C16.9205 2.99774 17.091 3.18785 17.2002 3.41328L20.5868 10.2399L28.1868 11.3466C28.4336 11.3817 28.6656 11.4852 28.8565 11.6455C29.0474 11.8058 29.1896 12.0163 29.2668 12.2533C29.3376 12.4848 29.3439 12.7313 29.2852 12.9662C29.2265 13.2011 29.1049 13.4156 28.9335 13.5866L23.4402 18.9199L24.7735 26.4266C24.8211 26.6766 24.7962 26.935 24.7017 27.1712C24.6072 27.4075 24.447 27.6118 24.2402 27.7599C23.9987 27.9291 23.708 28.0135 23.4135 27.9999Z" fill="#FFC042"/>
<path d="M63.4135 27.9999C63.2003 28.0008 62.9899 27.9505 62.8002 27.8533L56.0002 24.2933L49.2002 27.8533C48.9794 27.9694 48.7304 28.0212 48.4816 28.0029C48.2328 27.9845 47.9941 27.8968 47.7927 27.7495C47.5913 27.6023 47.4353 27.4015 47.3423 27.17C47.2494 26.9385 47.2232 26.6856 47.2668 26.4399L48.6002 18.9333L43.1068 13.5999C42.9354 13.4289 42.8139 13.2144 42.7551 12.9795C42.6964 12.7446 42.7028 12.4982 42.7735 12.2666C42.8508 12.0296 42.9929 11.8191 43.1838 11.6588C43.3747 11.4986 43.6067 11.395 43.8535 11.3599L51.4535 10.2533L54.8002 3.41328C54.9094 3.18785 55.0798 2.99774 55.2921 2.86471C55.5043 2.73169 55.7497 2.66113 56.0002 2.66113C56.2506 2.66113 56.4961 2.73169 56.7083 2.86471C56.9205 2.99774 57.091 3.18785 57.2002 3.41328L60.5868 10.2399L68.1868 11.3466C68.4336 11.3817 68.6656 11.4852 68.8565 11.6455C69.0474 11.8058 69.1896 12.0163 69.2668 12.2533C69.3376 12.4848 69.3439 12.7313 69.2852 12.9662C69.2265 13.2011 69.1049 13.4156 68.9335 13.5866L63.4402 18.9199L64.7735 26.4266C64.8211 26.6766 64.7962 26.935 64.7017 27.1712C64.6072 27.4075 64.447 27.6118 64.2402 27.7599C63.9987 27.9291 63.708 28.0135 63.4135 27.9999Z" fill="#FFC042"/>
<path d="M103.414 27.9999C103.2 28.0008 102.99 27.9505 102.8 27.8533L96.0002 24.2933L89.2002 27.8533C88.9794 27.9694 88.7304 28.0212 88.4816 28.0029C88.2328 27.9845 87.9941 27.8968 87.7927 27.7495C87.5913 27.6023 87.4353 27.4015 87.3423 27.17C87.2494 26.9385 87.2232 26.6856 87.2668 26.4399L88.6002 18.9333L83.1068 13.5999C82.9354 13.4289 82.8139 13.2144 82.7551 12.9795C82.6964 12.7446 82.7028 12.4982 82.7735 12.2666C82.8508 12.0296 82.9929 11.8191 83.1838 11.6588C83.3747 11.4986 83.6067 11.395 83.8535 11.3599L91.4535 10.2533L94.8002 3.41328C94.9094 3.18785 95.0798 2.99774 95.2921 2.86471C95.5043 2.73169 95.7497 2.66113 96.0002 2.66113C96.2506 2.66113 96.4961 2.73169 96.7083 2.86471C96.9205 2.99774 97.091 3.18785 97.2002 3.41328L100.587 10.2399L108.187 11.3466C108.434 11.3817 108.666 11.4852 108.857 11.6455C109.047 11.8058 109.19 12.0163 109.267 12.2533C109.338 12.4848 109.344 12.7313 109.285 12.9662C109.226 13.2011 109.105 13.4156 108.934 13.5866L103.44 18.9199L104.774 26.4266C104.821 26.6766 104.796 26.935 104.702 27.1712C104.607 27.4075 104.447 27.6118 104.24 27.7599C103.999 27.9291 103.708 28.0135 103.414 27.9999Z" fill="#FFC042"/>
<path d="M143.414 27.9999C143.2 28.0008 142.99 27.9505 142.8 27.8533L136 24.2933L129.2 27.8533C128.979 27.9694 128.73 28.0212 128.482 28.0029C128.233 27.9845 127.994 27.8968 127.793 27.7495C127.591 27.6023 127.435 27.4015 127.342 27.17C127.249 26.9385 127.223 26.6856 127.267 26.4399L128.6 18.9333L123.107 13.5999C122.935 13.4289 122.814 13.2144 122.755 12.9795C122.696 12.7446 122.703 12.4982 122.774 12.2666C122.851 12.0296 122.993 11.8191 123.184 11.6588C123.375 11.4986 123.607 11.395 123.854 11.3599L131.454 10.2533L134.8 3.41328C134.909 3.18785 135.08 2.99774 135.292 2.86471C135.504 2.73169 135.75 2.66113 136 2.66113C136.251 2.66113 136.496 2.73169 136.708 2.86471C136.921 2.99774 137.091 3.18785 137.2 3.41328L140.587 10.2399L148.187 11.3466C148.434 11.3817 148.666 11.4852 148.857 11.6455C149.047 11.8058 149.19 12.0163 149.267 12.2533C149.338 12.4848 149.344 12.7313 149.285 12.9662C149.226 13.2011 149.105 13.4156 148.934 13.5866L143.44 18.9199L144.774 26.4266C144.821 26.6766 144.796 26.935 144.702 27.1712C144.607 27.4075 144.447 27.6118 144.24 27.7599C143.999 27.9291 143.708 28.0135 143.414 27.9999Z" fill="#FFC042"/>
<path d="M183.414 27.9999C183.2 28.0008 182.99 27.9505 182.8 27.8533L176 24.2933L169.2 27.8533C168.979 27.9694 168.73 28.0212 168.482 28.0029C168.233 27.9845 167.994 27.8968 167.793 27.7495C167.591 27.6023 167.435 27.4015 167.342 27.17C167.249 26.9385 167.223 26.6856 167.267 26.4399L168.6 18.9333L163.107 13.5999C162.935 13.4289 162.814 13.2144 162.755 12.9795C162.696 12.7446 162.703 12.4982 162.774 12.2666C162.851 12.0296 162.993 11.8191 163.184 11.6588C163.375 11.4986 163.607 11.395 163.854 11.3599L171.454 10.2533L174.8 3.41328C174.909 3.18785 175.08 2.99774 175.292 2.86471C175.504 2.73169 175.75 2.66113 176 2.66113C176.251 2.66113 176.496 2.73169 176.708 2.86471C176.921 2.99774 177.091 3.18785 177.2 3.41328L180.587 10.2399L188.187 11.3466C188.434 11.3817 188.666 11.4852 188.857 11.6455C189.047 11.8058 189.19 12.0163 189.267 12.2533C189.338 12.4848 189.344 12.7313 189.285 12.9662C189.226 13.2011 189.105 13.4156 188.934 13.5866L183.44 18.9199L184.774 26.4266C184.821 26.6766 184.796 26.935 184.702 27.1712C184.607 27.4075 184.447 27.6118 184.24 27.7599C183.999 27.9291 183.708 28.0135 183.414 27.9999Z" fill="#FFC042"/>
</svg>
