<svg width="337" height="48" viewBox="0 0 337 48" fill="none" xmlns="http://www.w3.org/2000/svg">
<path d="M48 38.2502C48 39.6426 47.4469 40.978 46.4624 41.9626C45.4778 42.9471 44.1424 43.5002 42.75 43.5002C41.3577 43.5002 40.0223 42.9471 39.0377 41.9626C38.0532 40.978 37.5 39.6426 37.5 38.2502C37.5 33.8309 41.6363 30.4709 41.8125 30.3284C42.0786 30.1154 42.4092 29.9993 42.75 29.9993C43.0909 29.9993 43.4215 30.1154 43.6875 30.3284C43.8638 30.4709 48 33.8309 48 38.2502ZM24.8419 23.3421C25.1558 23.0271 25.3693 22.6262 25.4555 22.19C25.5417 21.7537 25.4967 21.3017 25.3262 20.891C25.1556 20.4804 24.8672 20.1294 24.4974 19.8825C24.1275 19.6357 23.6928 19.5039 23.2482 19.5039C22.8035 19.5039 22.3688 19.6357 21.9989 19.8825C21.6291 20.1294 21.3407 20.4804 21.1702 20.891C20.9997 21.3017 20.9546 21.7537 21.0408 22.19C21.127 22.6262 21.3405 23.0271 21.6544 23.3421C21.8635 23.5519 22.1118 23.7183 22.3853 23.8319C22.6588 23.9454 22.952 24.0039 23.2482 24.0039C23.5443 24.0039 23.8375 23.9454 24.111 23.8319C24.3845 23.7183 24.6329 23.5519 24.8419 23.3421ZM43.0613 22.0934L22.9069 1.93899C22.6256 1.6579 22.2443 1.5 21.8466 1.5C21.449 1.5 21.0676 1.6579 20.7863 1.93899L13.1719 9.56274L20.7525 17.1415C21.8616 16.5413 23.1496 16.3603 24.3811 16.6317C25.6126 16.9031 26.7053 17.6087 27.4594 18.6194C28.2134 19.6302 28.5784 20.8786 28.4877 22.1364C28.397 23.3942 27.8566 24.5773 26.9653 25.4694C26.074 26.3615 24.8914 26.9029 23.6337 26.9948C22.376 27.0866 21.1272 26.7227 20.1158 25.9695C19.1044 25.2163 18.3978 24.1243 18.1253 22.893C17.8529 21.6618 18.0327 20.3736 18.6319 19.264L11.0513 11.674L2.81254 19.9071C1.96869 20.751 1.49463 21.8956 1.49463 23.089C1.49463 24.2824 1.96869 25.427 2.81254 26.2709L18.7294 42.1877C19.5733 43.0316 20.7179 43.5057 21.9113 43.5057C23.1047 43.5057 24.2493 43.0316 25.0932 42.1877L43.0613 24.2196C43.2013 24.0802 43.3124 23.9146 43.3883 23.7321C43.4641 23.5497 43.5031 23.3541 43.5031 23.1565C43.5031 22.9589 43.4641 22.7633 43.3883 22.5809C43.3124 22.3984 43.2013 22.2327 43.0613 22.0934ZM8.56129 4.93899C8.27983 4.65753 7.89809 4.49941 7.50004 4.49941C7.102 4.49941 6.72025 4.65753 6.43879 4.93899C6.15733 5.22045 5.99921 5.6022 5.99921 6.00024C5.99921 6.39829 6.15733 6.78003 6.43879 7.06149L11.0513 11.674L13.1719 9.56274L8.56129 4.93899Z" fill="#9B6B43"/>
<path d="M76.2983 15.0455H79.9886V26.3807C79.9886 27.6534 79.6847 28.767 79.0767 29.7216C78.4744 30.6761 77.6307 31.4205 76.5455 31.9545C75.4602 32.483 74.196 32.7472 72.7528 32.7472C71.304 32.7472 70.0369 32.483 68.9517 31.9545C67.8665 31.4205 67.0227 30.6761 66.4205 29.7216C65.8182 28.767 65.517 27.6534 65.517 26.3807V15.0455H69.2074V26.0653C69.2074 26.7301 69.3523 27.321 69.642 27.8381C69.9375 28.3551 70.3523 28.7614 70.8864 29.0568C71.4205 29.3523 72.0426 29.5 72.7528 29.5C73.4688 29.5 74.0909 29.3523 74.6193 29.0568C75.1534 28.7614 75.5653 28.3551 75.8551 27.8381C76.1506 27.321 76.2983 26.7301 76.2983 26.0653V15.0455ZM82.9567 32.5V19.4091H86.4766V21.6932H86.6129C86.8516 20.8807 87.2521 20.267 87.8146 19.8523C88.3771 19.4318 89.0249 19.2216 89.7578 19.2216C89.9396 19.2216 90.1357 19.233 90.3459 19.2557C90.5561 19.2784 90.7408 19.3097 90.8999 19.3494V22.571C90.7294 22.5199 90.4936 22.4744 90.1925 22.4347C89.8913 22.3949 89.6158 22.375 89.3658 22.375C88.8317 22.375 88.3544 22.4915 87.9339 22.7244C87.5192 22.9517 87.1896 23.2699 86.9453 23.679C86.7067 24.0881 86.5874 24.5597 86.5874 25.0938V32.5H82.9567ZM92.8452 32.5V15.0455H96.4759V21.608H96.5866C96.7457 21.2557 96.9759 20.8977 97.277 20.5341C97.5838 20.1648 97.9815 19.858 98.4702 19.6136C98.9645 19.3636 99.5781 19.2386 100.311 19.2386C101.266 19.2386 102.146 19.4886 102.953 19.9886C103.76 20.483 104.405 21.2301 104.888 22.2301C105.371 23.2244 105.612 24.4716 105.612 25.9716C105.612 27.4318 105.376 28.6648 104.905 29.6705C104.439 30.6705 103.803 31.429 102.996 31.946C102.195 32.4574 101.297 32.7131 100.303 32.7131C99.598 32.7131 98.9986 32.5966 98.5043 32.3636C98.0156 32.1307 97.6151 31.8381 97.3026 31.4858C96.9901 31.1278 96.7514 30.767 96.5866 30.4034H96.4247V32.5H92.8452ZM96.3991 25.9545C96.3991 26.733 96.5071 27.4119 96.723 27.9915C96.9389 28.571 97.2514 29.0227 97.6605 29.3466C98.0696 29.6648 98.5668 29.8239 99.152 29.8239C99.7429 29.8239 100.243 29.6619 100.652 29.3381C101.061 29.0085 101.371 28.554 101.581 27.9744C101.797 27.3892 101.905 26.7159 101.905 25.9545C101.905 25.1989 101.8 24.5341 101.589 23.9602C101.379 23.3864 101.07 22.9375 100.661 22.6136C100.251 22.2898 99.7486 22.1278 99.152 22.1278C98.5611 22.1278 98.0611 22.2841 97.652 22.5966C97.2486 22.9091 96.9389 23.3523 96.723 23.9261C96.5071 24.5 96.3991 25.1761 96.3991 25.9545ZM111.768 32.7472C110.933 32.7472 110.188 32.6023 109.535 32.3125C108.881 32.017 108.364 31.5824 107.984 31.0085C107.609 30.429 107.421 29.7074 107.421 28.8438C107.421 28.1165 107.555 27.5057 107.822 27.0114C108.089 26.517 108.452 26.1193 108.913 25.8182C109.373 25.517 109.896 25.2898 110.481 25.1364C111.072 24.983 111.691 24.875 112.339 24.8125C113.1 24.733 113.714 24.6591 114.18 24.5909C114.646 24.517 114.984 24.4091 115.194 24.267C115.404 24.125 115.509 23.9148 115.509 23.6364V23.5852C115.509 23.0455 115.339 22.6278 114.998 22.3324C114.663 22.0369 114.185 21.8892 113.566 21.8892C112.913 21.8892 112.393 22.0341 112.006 22.3239C111.62 22.608 111.364 22.9659 111.239 23.3977L107.881 23.125C108.052 22.3295 108.387 21.642 108.887 21.0625C109.387 20.4773 110.032 20.0284 110.822 19.7159C111.617 19.3977 112.538 19.2386 113.583 19.2386C114.31 19.2386 115.006 19.3239 115.671 19.4943C116.342 19.6648 116.935 19.929 117.452 20.2869C117.975 20.6449 118.387 21.1051 118.688 21.6676C118.989 22.2244 119.14 22.892 119.14 23.6705V32.5H115.697V30.6847H115.594C115.384 31.0938 115.103 31.4545 114.751 31.767C114.398 32.0739 113.975 32.3153 113.481 32.4915C112.987 32.6619 112.415 32.7472 111.768 32.7472ZM112.808 30.2415C113.342 30.2415 113.813 30.1364 114.222 29.9261C114.631 29.7102 114.952 29.4205 115.185 29.0568C115.418 28.6932 115.535 28.2812 115.535 27.821V26.4318C115.421 26.5057 115.265 26.5739 115.066 26.6364C114.873 26.6932 114.654 26.7472 114.41 26.7983C114.165 26.8437 113.921 26.8864 113.677 26.9261C113.433 26.9602 113.211 26.9915 113.012 27.0199C112.586 27.0824 112.214 27.1818 111.896 27.3182C111.577 27.4545 111.33 27.6392 111.154 27.8722C110.978 28.0994 110.89 28.3835 110.89 28.7244C110.89 29.2188 111.069 29.5966 111.427 29.858C111.79 30.1136 112.251 30.2415 112.808 30.2415ZM125.587 24.9318V32.5H121.957V19.4091H125.417V21.7188H125.57C125.86 20.9574 126.346 20.3551 127.028 19.9119C127.71 19.4631 128.536 19.2386 129.508 19.2386C130.417 19.2386 131.21 19.4375 131.886 19.8352C132.562 20.233 133.087 20.8011 133.462 21.5398C133.837 22.2727 134.025 23.1477 134.025 24.1648V32.5H130.394V24.8125C130.4 24.0114 130.195 23.3864 129.781 22.9375C129.366 22.483 128.795 22.2557 128.067 22.2557C127.579 22.2557 127.147 22.3608 126.772 22.571C126.403 22.7812 126.113 23.0881 125.903 23.4915C125.698 23.8892 125.593 24.3693 125.587 24.9318ZM139.963 32.5H136.009L142.034 15.0455H146.79L152.807 32.5H148.852L144.48 19.0341H144.344L139.963 32.5ZM139.716 25.6392H149.057V28.5199H139.716V25.6392ZM160.196 32.7557C158.849 32.7557 157.69 32.483 156.719 31.9375C155.753 31.3864 155.009 30.608 154.486 29.6023C153.963 28.5909 153.702 27.3949 153.702 26.0142C153.702 24.6676 153.963 23.4858 154.486 22.4688C155.009 21.4517 155.744 20.6591 156.693 20.0909C157.648 19.5227 158.767 19.2386 160.051 19.2386C160.915 19.2386 161.719 19.3778 162.463 19.6562C163.213 19.929 163.866 20.3409 164.423 20.892C164.986 21.4432 165.423 22.1364 165.736 22.9716C166.048 23.8011 166.205 24.7727 166.205 25.8864V26.8835H155.151V24.6335H162.787C162.787 24.1108 162.673 23.6477 162.446 23.2443C162.219 22.8409 161.903 22.5256 161.5 22.2983C161.102 22.0653 160.639 21.9489 160.111 21.9489C159.56 21.9489 159.071 22.0767 158.645 22.3324C158.224 22.5824 157.895 22.9205 157.656 23.3466C157.418 23.767 157.295 24.2358 157.29 24.7528V26.892C157.29 27.5398 157.409 28.0994 157.648 28.571C157.892 29.0426 158.236 29.4062 158.679 29.6619C159.122 29.9176 159.648 30.0455 160.256 30.0455C160.659 30.0455 161.028 29.9886 161.364 29.875C161.699 29.7614 161.986 29.5909 162.224 29.3636C162.463 29.1364 162.645 28.858 162.77 28.5284L166.128 28.75C165.957 29.5568 165.608 30.2614 165.08 30.8636C164.557 31.4602 163.881 31.9261 163.051 32.2614C162.227 32.5909 161.276 32.7557 160.196 32.7557ZM175.537 19.4091V22.1364H167.653V19.4091H175.537ZM169.443 16.2727H173.074V28.4773C173.074 28.8125 173.125 29.0739 173.227 29.2614C173.33 29.4432 173.472 29.571 173.653 29.6449C173.841 29.7187 174.057 29.7557 174.301 29.7557C174.472 29.7557 174.642 29.7415 174.812 29.7131C174.983 29.679 175.114 29.6534 175.205 29.6364L175.776 32.3381C175.594 32.3949 175.338 32.4602 175.009 32.5341C174.679 32.6136 174.278 32.6619 173.807 32.679C172.932 32.7131 172.165 32.5966 171.506 32.3295C170.852 32.0625 170.344 31.6477 169.98 31.0852C169.616 30.5227 169.438 29.8125 169.443 28.9545V16.2727ZM181.814 24.9318V32.5H178.183V15.0455H181.712V21.7188H181.865C182.161 20.946 182.638 20.3409 183.297 19.9034C183.956 19.4602 184.783 19.2386 185.777 19.2386C186.686 19.2386 187.479 19.4375 188.155 19.8352C188.837 20.2273 189.365 20.7926 189.74 21.5312C190.121 22.2642 190.308 23.142 190.303 24.1648V32.5H186.672V24.8125C186.678 24.0057 186.473 23.3778 186.058 22.929C185.649 22.4801 185.075 22.2557 184.337 22.2557C183.842 22.2557 183.405 22.3608 183.024 22.571C182.649 22.7812 182.354 23.0881 182.138 23.4915C181.928 23.8892 181.82 24.3693 181.814 24.9318ZM199.126 32.7557C197.779 32.7557 196.62 32.483 195.648 31.9375C194.683 31.3864 193.938 30.608 193.415 29.6023C192.893 28.5909 192.631 27.3949 192.631 26.0142C192.631 24.6676 192.893 23.4858 193.415 22.4688C193.938 21.4517 194.674 20.6591 195.623 20.0909C196.577 19.5227 197.697 19.2386 198.981 19.2386C199.844 19.2386 200.648 19.3778 201.393 19.6562C202.143 19.929 202.796 20.3409 203.353 20.892C203.915 21.4432 204.353 22.1364 204.665 22.9716C204.978 23.8011 205.134 24.7727 205.134 25.8864V26.8835H194.08V24.6335H201.717C201.717 24.1108 201.603 23.6477 201.376 23.2443C201.148 22.8409 200.833 22.5256 200.43 22.2983C200.032 22.0653 199.569 21.9489 199.04 21.9489C198.489 21.9489 198.001 22.0767 197.575 22.3324C197.154 22.5824 196.825 22.9205 196.586 23.3466C196.347 23.767 196.225 24.2358 196.219 24.7528V26.892C196.219 27.5398 196.339 28.0994 196.577 28.571C196.822 29.0426 197.165 29.4062 197.609 29.6619C198.052 29.9176 198.577 30.0455 199.185 30.0455C199.589 30.0455 199.958 29.9886 200.293 29.875C200.629 29.7614 200.915 29.5909 201.154 29.3636C201.393 29.1364 201.575 28.858 201.7 28.5284L205.058 28.75C204.887 29.5568 204.538 30.2614 204.009 30.8636C203.487 31.4602 202.81 31.9261 201.981 32.2614C201.157 32.5909 200.205 32.7557 199.126 32.7557ZM214.467 19.4091V22.1364H206.583V19.4091H214.467ZM208.373 16.2727H212.004V28.4773C212.004 28.8125 212.055 29.0739 212.157 29.2614C212.259 29.4432 212.401 29.571 212.583 29.6449C212.771 29.7187 212.987 29.7557 213.231 29.7557C213.401 29.7557 213.572 29.7415 213.742 29.7131C213.913 29.679 214.043 29.6534 214.134 29.6364L214.705 32.3381C214.523 32.3949 214.268 32.4602 213.938 32.5341C213.609 32.6136 213.208 32.6619 212.737 32.679C211.862 32.7131 211.094 32.5966 210.435 32.3295C209.782 32.0625 209.273 31.6477 208.91 31.0852C208.546 30.5227 208.367 29.8125 208.373 28.9545V16.2727ZM216.832 32.5V19.4091H220.462V32.5H216.832ZM218.656 17.7216C218.116 17.7216 217.653 17.5426 217.266 17.1847C216.886 16.821 216.695 16.3864 216.695 15.8807C216.695 15.3807 216.886 14.9517 217.266 14.5938C217.653 14.2301 218.116 14.0483 218.656 14.0483C219.195 14.0483 219.656 14.2301 220.036 14.5938C220.423 14.9517 220.616 15.3807 220.616 15.8807C220.616 16.3864 220.423 16.821 220.036 17.1847C219.656 17.5426 219.195 17.7216 218.656 17.7216ZM229.286 32.7557C227.945 32.7557 226.791 32.4716 225.825 31.9034C224.865 31.3295 224.126 30.5341 223.609 29.517C223.098 28.5 222.842 27.3295 222.842 26.0057C222.842 24.6648 223.101 23.4886 223.618 22.4773C224.141 21.4602 224.882 20.6676 225.842 20.0994C226.803 19.5256 227.945 19.2386 229.268 19.2386C230.411 19.2386 231.411 19.446 232.268 19.8608C233.126 20.2756 233.805 20.858 234.305 21.608C234.805 22.358 235.081 23.2386 235.132 24.25H231.706C231.609 23.5966 231.354 23.071 230.939 22.6733C230.53 22.2699 229.993 22.0682 229.328 22.0682C228.766 22.0682 228.274 22.2216 227.854 22.5284C227.439 22.8295 227.115 23.2699 226.882 23.8494C226.649 24.429 226.533 25.1307 226.533 25.9545C226.533 26.7898 226.646 27.5 226.874 28.0852C227.107 28.6705 227.433 29.1165 227.854 29.4233C228.274 29.7301 228.766 29.8835 229.328 29.8835C229.743 29.8835 230.115 29.7983 230.445 29.6278C230.78 29.4574 231.055 29.2102 231.271 28.8864C231.493 28.5568 231.638 28.1619 231.706 27.7017H235.132C235.075 28.7017 234.803 29.5824 234.314 30.3438C233.831 31.0994 233.163 31.6903 232.311 32.1165C231.459 32.5426 230.45 32.7557 229.286 32.7557ZM248.349 23.142L245.025 23.3466C244.968 23.0625 244.846 22.8068 244.658 22.5795C244.471 22.3466 244.224 22.1619 243.917 22.0256C243.616 21.8835 243.255 21.8125 242.835 21.8125C242.272 21.8125 241.798 21.9318 241.411 22.1705C241.025 22.4034 240.832 22.7159 240.832 23.108C240.832 23.4205 240.957 23.6847 241.207 23.9006C241.457 24.1165 241.886 24.2898 242.494 24.4205L244.863 24.8977C246.136 25.1591 247.085 25.5795 247.71 26.1591C248.335 26.7386 248.647 27.5 248.647 28.4432C248.647 29.3011 248.394 30.054 247.888 30.7017C247.388 31.3494 246.701 31.8551 245.826 32.2188C244.957 32.5767 243.954 32.7557 242.817 32.7557C241.085 32.7557 239.704 32.3949 238.675 31.6733C237.653 30.946 237.053 29.9574 236.877 28.7074L240.448 28.5199C240.556 29.0483 240.817 29.4517 241.232 29.7301C241.647 30.0028 242.178 30.1392 242.826 30.1392C243.462 30.1392 243.974 30.017 244.36 29.7727C244.752 29.5227 244.951 29.2017 244.957 28.8097C244.951 28.4801 244.812 28.2102 244.539 28C244.266 27.7841 243.846 27.6193 243.278 27.5057L241.011 27.054C239.732 26.7983 238.781 26.3551 238.156 25.7244C237.536 25.0937 237.227 24.2898 237.227 23.3125C237.227 22.4716 237.454 21.7472 237.908 21.1392C238.369 20.5312 239.013 20.0625 239.843 19.733C240.678 19.4034 241.656 19.2386 242.775 19.2386C244.428 19.2386 245.729 19.5881 246.678 20.2869C247.633 20.9858 248.19 21.9375 248.349 23.142ZM262.744 32.5H256.556V15.0455H262.795C264.55 15.0455 266.062 15.3949 267.329 16.0938C268.596 16.7869 269.57 17.7841 270.252 19.0852C270.94 20.3864 271.283 21.9432 271.283 23.7557C271.283 25.5739 270.94 27.1364 270.252 28.4432C269.57 29.75 268.59 30.7528 267.312 31.4517C266.039 32.1506 264.516 32.5 262.744 32.5ZM260.246 29.3381H262.59C263.681 29.3381 264.599 29.1449 265.343 28.7585C266.093 28.3665 266.656 27.7614 267.031 26.9432C267.411 26.1193 267.602 25.0568 267.602 23.7557C267.602 22.4659 267.411 21.4119 267.031 20.5938C266.656 19.7756 266.096 19.1733 265.352 18.7869C264.607 18.4006 263.69 18.2074 262.599 18.2074H260.246V29.3381ZM279.915 32.7557C278.568 32.7557 277.409 32.483 276.438 31.9375C275.472 31.3864 274.727 30.608 274.205 29.6023C273.682 28.5909 273.42 27.3949 273.42 26.0142C273.42 24.6676 273.682 23.4858 274.205 22.4688C274.727 21.4517 275.463 20.6591 276.412 20.0909C277.366 19.5227 278.486 19.2386 279.77 19.2386C280.634 19.2386 281.438 19.3778 282.182 19.6562C282.932 19.929 283.585 20.3409 284.142 20.892C284.705 21.4432 285.142 22.1364 285.455 22.9716C285.767 23.8011 285.923 24.7727 285.923 25.8864V26.8835H274.869V24.6335H282.506C282.506 24.1108 282.392 23.6477 282.165 23.2443C281.938 22.8409 281.622 22.5256 281.219 22.2983C280.821 22.0653 280.358 21.9489 279.83 21.9489C279.278 21.9489 278.79 22.0767 278.364 22.3324C277.943 22.5824 277.614 22.9205 277.375 23.3466C277.136 23.767 277.014 24.2358 277.009 24.7528V26.892C277.009 27.5398 277.128 28.0994 277.366 28.571C277.611 29.0426 277.955 29.4062 278.398 29.6619C278.841 29.9176 279.366 30.0455 279.974 30.0455C280.378 30.0455 280.747 29.9886 281.082 29.875C281.418 29.7614 281.705 29.5909 281.943 29.3636C282.182 29.1364 282.364 28.858 282.489 28.5284L285.847 28.75C285.676 29.5568 285.327 30.2614 284.798 30.8636C284.276 31.4602 283.599 31.9261 282.77 32.2614C281.946 32.5909 280.994 32.7557 279.915 32.7557ZM299.185 23.142L295.861 23.3466C295.804 23.0625 295.682 22.8068 295.494 22.5795C295.307 22.3466 295.06 22.1619 294.753 22.0256C294.452 21.8835 294.091 21.8125 293.67 21.8125C293.108 21.8125 292.634 21.9318 292.247 22.1705C291.861 22.4034 291.668 22.7159 291.668 23.108C291.668 23.4205 291.793 23.6847 292.043 23.9006C292.293 24.1165 292.722 24.2898 293.33 24.4205L295.699 24.8977C296.972 25.1591 297.92 25.5795 298.545 26.1591C299.17 26.7386 299.483 27.5 299.483 28.4432C299.483 29.3011 299.23 30.054 298.724 30.7017C298.224 31.3494 297.537 31.8551 296.662 32.2188C295.793 32.5767 294.79 32.7557 293.653 32.7557C291.92 32.7557 290.54 32.3949 289.511 31.6733C288.489 30.946 287.889 29.9574 287.713 28.7074L291.284 28.5199C291.392 29.0483 291.653 29.4517 292.068 29.7301C292.483 30.0028 293.014 30.1392 293.662 30.1392C294.298 30.1392 294.81 30.017 295.196 29.7727C295.588 29.5227 295.787 29.2017 295.793 28.8097C295.787 28.4801 295.648 28.2102 295.375 28C295.102 27.7841 294.682 27.6193 294.114 27.5057L291.847 27.054C290.568 26.7983 289.616 26.3551 288.991 25.7244C288.372 25.0937 288.062 24.2898 288.062 23.3125C288.062 22.4716 288.29 21.7472 288.744 21.1392C289.205 20.5312 289.849 20.0625 290.679 19.733C291.514 19.4034 292.491 19.2386 293.611 19.2386C295.264 19.2386 296.565 19.5881 297.514 20.2869C298.469 20.9858 299.026 21.9375 299.185 23.142ZM301.769 32.5V19.4091H305.4V32.5H301.769ZM303.593 17.7216C303.053 17.7216 302.59 17.5426 302.204 17.1847C301.823 16.821 301.633 16.3864 301.633 15.8807C301.633 15.3807 301.823 14.9517 302.204 14.5938C302.59 14.2301 303.053 14.0483 303.593 14.0483C304.133 14.0483 304.593 14.2301 304.974 14.5938C305.36 14.9517 305.553 15.3807 305.553 15.8807C305.553 16.3864 305.36 16.821 304.974 17.1847C304.593 17.5426 304.133 17.7216 303.593 17.7216ZM314.206 37.6818C313.03 37.6818 312.021 37.5199 311.18 37.196C310.345 36.8778 309.68 36.4432 309.186 35.892C308.692 35.3409 308.371 34.7216 308.223 34.0341L311.581 33.5824C311.683 33.8438 311.845 34.0881 312.067 34.3153C312.288 34.5426 312.581 34.7244 312.945 34.8608C313.314 35.0028 313.763 35.0739 314.291 35.0739C315.081 35.0739 315.732 34.8807 316.243 34.4943C316.76 34.1136 317.018 33.4744 317.018 32.5767V30.1818H316.865C316.706 30.5455 316.467 30.8892 316.149 31.2131C315.831 31.5369 315.422 31.8011 314.922 32.0057C314.422 32.2102 313.825 32.3125 313.132 32.3125C312.149 32.3125 311.254 32.0852 310.447 31.6307C309.646 31.1705 309.007 30.4687 308.53 29.5256C308.058 28.5767 307.822 27.3778 307.822 25.929C307.822 24.446 308.064 23.2074 308.547 22.2131C309.03 21.2187 309.672 20.4744 310.473 19.9801C311.28 19.4858 312.163 19.2386 313.124 19.2386C313.857 19.2386 314.47 19.3636 314.964 19.6136C315.459 19.858 315.857 20.1648 316.158 20.5341C316.464 20.8977 316.7 21.2557 316.865 21.608H317.001V19.4091H320.607V32.6278C320.607 33.7415 320.334 34.6733 319.788 35.4233C319.243 36.1733 318.487 36.7358 317.521 37.1108C316.561 37.4915 315.456 37.6818 314.206 37.6818ZM314.283 29.5852C314.868 29.5852 315.362 29.4403 315.766 29.1506C316.175 28.8551 316.487 28.4347 316.703 27.8892C316.925 27.3381 317.036 26.679 317.036 25.9119C317.036 25.1449 316.928 24.4801 316.712 23.9176C316.496 23.3494 316.183 22.9091 315.774 22.5966C315.365 22.2841 314.868 22.1278 314.283 22.1278C313.686 22.1278 313.183 22.2898 312.774 22.6136C312.365 22.9318 312.055 23.375 311.845 23.9432C311.635 24.5114 311.53 25.1676 311.53 25.9119C311.53 26.6676 311.635 27.321 311.845 27.8722C312.061 28.4176 312.371 28.8409 312.774 29.142C313.183 29.4375 313.686 29.5852 314.283 29.5852ZM327.126 24.9318V32.5H323.496V19.4091H326.956V21.7188H327.109C327.399 20.9574 327.885 20.3551 328.567 19.9119C329.249 19.4631 330.075 19.2386 331.047 19.2386C331.956 19.2386 332.749 19.4375 333.425 19.8352C334.101 20.233 334.626 20.8011 335.001 21.5398C335.376 22.2727 335.564 23.1477 335.564 24.1648V32.5H331.933V24.8125C331.939 24.0114 331.734 23.3864 331.32 22.9375C330.905 22.483 330.334 22.2557 329.607 22.2557C329.118 22.2557 328.686 22.3608 328.311 22.571C327.942 22.7812 327.652 23.0881 327.442 23.4915C327.237 23.8892 327.132 24.3693 327.126 24.9318Z" fill="#9B6B43"/>
</svg>
